<svg width="700" height="700" viewBox="0 0 700 700" fill="none" xmlns="http://www.w3.org/2000/svg">
<path d="M189 208.003H496.563C546.443 208.003 587.237 247.752 588.532 297.615L593.614 493.244C594.413 523.977 579.806 553.078 554.686 570.803L517.312 597.174C501.793 608.125 483.265 614.003 464.271 614.003H111C82.2812 614.003 59 590.722 59 562.003V338.003C59 266.206 117.203 208.003 189 208.003Z" fill="white" stroke="black" stroke-width="16"/>
<path d="M189 208.003H496.663C546.506 208.003 587.285 247.696 588.63 297.521L593.526 478.881C594.373 510.237 579.185 539.864 553.232 557.482L516.937 582.122C501.691 592.471 483.69 598.003 465.264 598.003H111C82.2812 598.003 59 574.722 59 546.003V338.003C59 266.206 117.203 208.003 189 208.003Z" fill="white" stroke="black" stroke-width="16"/>
<path d="M94 608.003H146V630.003C146 641.049 137.046 650.003 126 650.003H114C102.954 650.003 94 641.049 94 630.003V608.003Z" fill="black"/>
<path d="M420 613.003H472V637.003C472 648.049 463.046 657.003 452 657.003H440C428.954 657.003 420 648.049 420 637.003V613.003Z" fill="black"/>
<path d="M534 572.503L569 564.003V594.503C569 604.168 561.165 612.003 551.5 612.003C541.835 612.003 534 604.168 534 594.503V572.503Z" fill="black"/>
<line x1="121.219" y1="494.031" x2="94.0278" y2="515.784" stroke="black" stroke-width="10" stroke-linecap="round"/>
<line x1="540.219" y1="284.033" x2="513.028" y2="305.786" stroke="black" stroke-width="10" stroke-linecap="round"/>
<line x1="550.189" y1="310.03" x2="529.024" y2="326.816" stroke="black" stroke-width="10" stroke-linecap="round"/>
<line x1="545" y1="344.005" x2="545" y2="495.005" stroke="black" stroke-width="18" stroke-linecap="round"/>
<line x1="548" y1="377.005" x2="569" y2="377.005" stroke="black" stroke-width="18" stroke-linecap="round"/>
<line x1="151.679" y1="505.067" x2="113.064" y2="540.325" stroke="black" stroke-width="10" stroke-linecap="round"/>
<line x1="173.568" y1="529.062" x2="155.058" y2="545.437" stroke="black" stroke-width="10" stroke-linecap="round"/>
<line x1="178.308" y1="641.851" x2="143.866" y2="662.676" stroke="black" stroke-width="10" stroke-linecap="round"/>
<line x1="229.308" y1="639.851" x2="194.866" y2="660.676" stroke="black" stroke-width="10" stroke-linecap="round"/>
<line x1="272.816" y1="643.956" x2="249.971" y2="660.169" stroke="black" stroke-width="10" stroke-linecap="round"/>
<path d="M385.101 115L400.601 103.5L427.089 84.0924" stroke="black" stroke-width="10" stroke-linecap="round"/>
<path d="M319.601 98C317.536 85.8608 319.053 73.383 323.965 62.0916L330.826 46.3181" stroke="black" stroke-width="10" stroke-linecap="round"/>
<path d="M265.101 116.5L256.101 101L238.521 70.9999" stroke="black" stroke-width="10" stroke-linecap="round"/>
<line x1="541.558" y1="637.907" x2="520.922" y2="651.427" stroke="black" stroke-width="10" stroke-linecap="round"/>
<line x1="617.484" y1="614.891" x2="600.907" y2="625.501" stroke="black" stroke-width="10" stroke-linecap="round"/>
<line x1="599.285" y1="596.843" x2="572.86" y2="612.698" stroke="black" stroke-width="10" stroke-linecap="round"/>
<line x1="508.285" y1="637.845" x2="481.86" y2="653.7" stroke="black" stroke-width="10" stroke-linecap="round"/>
<path d="M155.937 250.801C163.213 244.483 172.526 241.004 182.162 241.004H486.524C497.42 241.004 502.676 254.354 494.706 261.783L484.531 271.266C477.126 278.167 467.381 282.004 457.259 282.004H152.124C141.021 282.004 135.872 268.223 144.256 260.943L155.937 250.801Z" fill="black"/>
<path d="M354.845 136.708L364.737 142.83L403.471 162.5L422.174 173.885C433.038 180.498 440.611 191.384 443.035 203.869C444.7 212.446 443.843 221.321 440.567 229.42L439.122 232.993C436.844 239.395 432.162 244.657 426.07 247.666L382.213 269.321L329.298 289.269C321.543 292.192 313.454 294.141 305.218 295.068L282.618 297.614C262.619 299.867 242.406 296.034 224.62 286.614L212.662 280.281C209.442 278.575 206.452 276.466 203.766 274.003L202.83 273.145C191.599 262.849 187.05 247.148 191.039 232.443C194.337 220.284 203.075 210.334 214.706 205.493L229.504 199.334C239.448 195.195 248.36 188.92 255.608 180.953L261.594 174.373C265.304 170.295 268.424 165.718 270.864 160.774C286.274 129.546 325.234 118.381 354.845 136.708Z" fill="white" stroke="black" stroke-width="10"/>
<path d="M347.206 155.079L354.012 159.267L384.172 174.426L398.477 183.082C407.069 188.281 413.026 196.91 414.841 206.788C416.06 213.417 415.345 220.256 412.783 226.49L411.525 229.553C409.69 234.609 405.991 238.772 401.187 241.191L366.708 258.545L327.547 273.703C319.859 276.679 311.832 278.693 303.649 279.698L291.63 281.176C273.963 283.347 256.054 280.079 240.293 271.809L233.976 268.494C231.444 267.165 229.095 265.512 226.99 263.577L226.714 263.324C217.758 255.093 214.179 242.533 217.45 230.817C220.091 221.359 226.886 213.613 235.919 209.764L247.721 204.734C255.554 201.396 262.572 196.404 268.294 190.099L273.107 184.797C276.005 181.603 278.452 178.026 280.377 174.166C292.724 149.412 323.647 140.58 347.206 155.079Z" fill="white" stroke="black" stroke-width="10"/>
<line x1="223.066" y1="220.559" x2="403.585" y2="188.347" stroke="black" stroke-width="6"/>
<line x1="223.568" y1="252.516" x2="413.989" y2="215.407" stroke="black" stroke-width="6"/>
<line x1="246.782" y1="276.766" x2="392.767" y2="243.958" stroke="black" stroke-width="6"/>
<path d="M340.174 200.164C352.241 189.655 367.851 190.237 375.338 198.835C382.825 207.432 381.257 222.973 369.19 233.482C357.123 243.99 341.514 243.409 334.027 234.812C326.539 226.215 328.107 210.673 340.174 200.164Z" fill="white" stroke="black" stroke-width="10"/>
<path d="M350.562 212.092C354.399 208.751 358.927 209.203 360.87 211.434C362.813 213.665 362.639 218.212 358.802 221.554C354.966 224.895 350.438 224.442 348.495 222.211C346.552 219.981 346.725 215.433 350.562 212.092Z" fill="black" stroke="black" stroke-width="6"/>
<line x1="276.102" y1="182.926" x2="368.768" y2="167.499" stroke="black" stroke-width="6"/>
<path d="M166.054 272.793C167.016 272.601 167.994 272.501 168.974 272.493L424.787 270.503C424.929 270.502 425.069 270.518 425.207 270.551C431.899 272.154 430.735 282.004 423.854 282.004H166.967C161.349 282.004 160.546 273.895 166.054 272.793Z" fill="black"/>
<rect x="130" y="282.004" width="376" height="72" fill="white"/>
<path d="M476 318.505L487.95 339.648C492.904 348.412 495.572 358.281 495.711 368.347L498 535.005" stroke="black" stroke-width="14" stroke-linecap="round"/>
<rect x="571" y="362.005" width="70" height="29" rx="12" fill="white" stroke="black" stroke-width="16"/>
<path d="M250.91 471.005H220.285C215.865 471.005 212.697 470.026 210.783 468.066C208.915 466.061 207.98 462.893 207.98 458.564V383.232C207.98 378.811 208.938 375.644 210.852 373.73C212.811 371.77 215.956 370.791 220.285 370.791H252.756C257.541 370.791 261.688 371.087 265.197 371.679C268.706 372.272 271.851 373.411 274.631 375.097C277.001 376.51 279.097 378.31 280.92 380.498C282.743 382.639 284.133 385.032 285.09 387.675C286.047 390.273 286.525 393.03 286.525 395.947C286.525 405.973 281.512 413.31 271.486 417.958C284.657 422.151 291.242 430.309 291.242 442.431C291.242 448.037 289.807 453.095 286.936 457.607C284.064 462.073 280.191 465.377 275.314 467.519C272.261 468.795 268.752 469.707 264.787 470.253C260.822 470.755 256.197 471.005 250.91 471.005ZM249.406 426.503H228.283V455.761H250.09C263.807 455.761 270.666 450.817 270.666 440.927C270.666 435.869 268.889 432.2 265.334 429.921C261.779 427.643 256.47 426.503 249.406 426.503ZM228.283 386.035V411.943H246.877C251.936 411.943 255.832 411.464 258.566 410.507C261.346 409.55 263.465 407.727 264.924 405.039C266.063 403.125 266.633 400.983 266.633 398.613C266.633 393.554 264.833 390.205 261.232 388.564C257.632 386.878 252.141 386.035 244.758 386.035H228.283ZM352.971 369.082C363.361 369.082 372.271 371.201 379.699 375.439C387.173 379.632 392.824 385.625 396.652 393.417C400.48 401.165 402.395 410.279 402.395 420.761C402.395 428.509 401.346 435.55 399.25 441.884C397.154 448.219 394.009 453.71 389.816 458.359C385.624 463.007 380.474 466.562 374.367 469.023C368.26 471.484 361.265 472.714 353.381 472.714C345.542 472.714 338.524 471.461 332.326 468.955C326.128 466.403 320.956 462.825 316.809 458.222C312.661 453.619 309.517 448.082 307.375 441.611C305.279 435.139 304.23 428.144 304.23 420.625C304.23 412.923 305.324 405.859 307.512 399.433C309.745 393.007 312.958 387.539 317.15 383.027C321.343 378.515 326.447 375.074 332.463 372.705C338.479 370.289 345.314 369.082 352.971 369.082ZM381.818 420.625C381.818 413.287 380.633 406.93 378.264 401.552C375.894 396.175 372.499 392.119 368.078 389.384C363.703 386.604 358.667 385.214 352.971 385.214C348.915 385.214 345.155 385.989 341.691 387.539C338.273 389.042 335.311 391.253 332.805 394.169C330.344 397.086 328.384 400.823 326.926 405.38C325.513 409.892 324.807 414.973 324.807 420.625C324.807 426.321 325.513 431.471 326.926 436.074C328.384 440.677 330.412 444.505 333.01 447.558C335.653 450.566 338.661 452.822 342.033 454.326C345.451 455.83 349.188 456.582 353.244 456.582C358.439 456.582 363.202 455.283 367.531 452.685C371.906 450.087 375.37 446.077 377.922 440.654C380.52 435.231 381.818 428.554 381.818 420.625Z" fill="black"/>
</svg>
